<svg width="5" height="12" viewBox="0 0 5 12" fill="none" xmlns="http://www.w3.org/2000/svg">
<path d="M1.08072 2.32402C1.08072 2.62642 1.08072 3.97618 1.08072 3.97618H0V5.99646H1.08072V12H3.30076V5.99662H4.79051C4.79051 5.99662 4.93003 5.02792 4.99766 3.96873C4.80376 3.96873 3.30915 3.96873 3.30915 3.96873C3.30915 3.96873 3.30915 2.7934 3.30915 2.58739C3.30915 2.38093 3.5512 2.10322 3.79044 2.10322C4.02923 2.10322 4.53321 2.10322 5 2.10322C5 1.82816 5 0.877753 5 7.21669e-09C4.37685 7.21669e-09 3.66791 7.21669e-09 3.35541 7.21669e-09C1.02585 -0.000139491 1.08072 2.02214 1.08072 2.32402Z" fill="white"/>
</svg>
