<svg width="16" height="12" viewBox="0 0 16 12" fill="none" xmlns="http://www.w3.org/2000/svg">
<path d="M14.1872 5.335C15.0858 5.25429 15.6953 4.80953 15.9299 4.20606C15.6058 4.42285 14.5995 4.6592 14.0438 4.43411C14.0166 4.29196 13.9861 4.15694 13.9563 4.03504C13.5328 2.34228 12.083 0.978527 10.5639 1.14328C10.6868 1.08925 10.8115 1.03895 10.9358 0.993795C11.103 0.928593 12.084 0.754813 11.9296 0.377812C11.7994 0.046209 10.6007 0.628417 10.375 0.704514C10.673 0.582532 11.1657 0.372709 11.2185 0C10.762 0.0681592 10.314 0.303092 9.96774 0.644697C10.0927 0.498214 10.1876 0.319696 10.2077 0.127571C8.9903 0.974275 8.27916 2.68129 7.70365 4.33716C7.25176 3.86037 6.85123 3.48491 6.49193 3.27642C5.48394 2.68793 4.27872 2.07393 2.38681 1.30932C2.32874 1.99079 2.69638 2.89691 3.75574 3.49948C3.52622 3.46603 3.1065 3.54067 2.77082 3.62819C2.90753 4.40888 3.35399 5.05208 4.56267 5.36311C4.01029 5.4028 3.72483 5.53964 3.46611 5.83459C3.71769 6.37756 4.33158 7.01659 5.43592 6.88541C4.20812 7.46154 4.93529 8.52848 5.93435 8.36936C4.23003 10.2859 1.54298 10.145 0 8.54205C4.02863 14.5185 12.786 12.0765 14.091 6.32005C15.0688 6.32912 15.6436 5.95131 16 5.53478C15.4367 5.63886 14.6201 5.5313 14.1872 5.335Z" fill="white"/>
</svg>
