<svg width="57" height="88" viewBox="0 0 57 88" fill="none" xmlns="http://www.w3.org/2000/svg">
<mask id="path-1-inside-1_14_47" fill="white">
<path d="M56.89 26.9438L51.5552 14.7947V1.29168C51.5552 0.349464 50.5425 -0.285613 49.7084 0.136511L44.8343 2.60326L39.9603 0.136511C39.6011 -0.0455038 39.1779 -0.0455038 38.8187 0.136511L33.9447 2.60326L29.0708 0.136511C28.7116 -0.0455038 28.2884 -0.0455038 27.9292 0.136511L23.0552 2.60326L18.1811 0.136511C17.8219 -0.0455038 17.3989 -0.0455038 17.0397 0.136511L12.1657 2.60326L7.29159 0.136511C6.45745 -0.285613 5.44483 0.349636 5.44483 1.29168V14.7945L0.109872 26.9436C0.03753 27.1078 0 27.2887 0 27.4682V86.7084C0 87.4218 0.571434 88 1.27617 88H55.7238C56.4287 88 57 87.4218 57 86.7084V27.4682C56.9998 27.2875 56.9626 27.109 56.89 26.9438ZM7.99701 3.3815L11.5949 5.20234C11.9541 5.38436 12.3771 5.38436 12.7363 5.20234L17.6103 2.73577L22.4844 5.20234C22.8436 5.38436 23.2666 5.38436 23.6258 5.20234L28.4998 2.73577L33.3739 5.20234C33.7331 5.38436 34.1563 5.38436 34.5154 5.20234L39.3893 2.73577L44.2634 5.20234C44.6226 5.38436 45.0458 5.38436 45.4049 5.20234L49.0026 3.3815V13.777H7.99701V3.3815ZM2.55218 65.9569H30.7747L35.9855 70.1761L30.7747 74.3953H2.55218V65.9569ZM35.3059 28.7595H43.5582V85.4169H2.55218V76.9785H31.2223C31.512 76.9785 31.7933 76.8787 32.0196 76.6955L38.8255 71.1846C39.454 70.6756 39.454 69.6766 38.8255 69.1675L32.0196 63.6567C31.7933 63.4737 31.5122 63.3736 31.2223 63.3736H2.55218V28.7595H29.3506C30.0555 28.7595 30.6268 28.1813 30.6268 27.4678C30.6268 26.7544 30.0555 26.1762 29.3506 26.1762H3.23993L7.55039 16.3601H48.3156L44.0053 26.1762H35.3059C34.601 26.1762 34.0297 26.7544 34.0297 27.4678C34.0297 28.1813 34.601 28.7595 35.3059 28.7595ZM54.4477 85.4167H46.1103V27.7423L50.279 18.2488L54.4477 27.7423V85.4167Z"/>
<path d="M23.0552 41.3308C17.2853 41.3308 12.5911 46.0819 12.5911 51.9217C12.5911 57.2594 16.503 60.4461 23.0552 60.4461C29.6076 60.4461 33.5193 57.2594 33.5193 51.9217C33.5193 46.0819 28.8251 41.3308 23.0552 41.3308ZM23.0552 57.863C20.1004 57.863 15.1433 57.0911 15.1433 51.9217C15.1433 47.506 18.6926 43.9139 23.0552 43.9139C27.418 43.9139 30.9671 47.506 30.9671 51.9217C30.9671 57.0913 26.01 57.863 23.0552 57.863Z"/>
<path d="M17.9506 30.9981C15.3423 30.9981 13.6118 34.2632 13.6118 36.4228C13.6118 38.8444 15.5583 40.8142 17.9506 40.8142C20.3432 40.8142 22.2895 38.8444 22.2895 36.4228C22.2895 34.2632 20.559 30.9981 17.9506 30.9981ZM17.9506 38.231C16.9655 38.231 16.164 37.4199 16.164 36.4227C16.164 35.2012 17.1826 33.5812 17.9506 33.5812C18.7187 33.5812 19.7373 35.201 19.7373 36.4227C19.7373 37.4199 18.9357 38.231 17.9506 38.231Z"/>
<path d="M28.1595 30.9981C25.5513 30.9981 23.8207 34.2632 23.8207 36.4228C23.8207 38.8444 25.7671 40.8142 28.1595 40.8142C30.5521 40.8142 32.4983 38.8444 32.4983 36.4228C32.4983 34.2632 30.7677 30.9981 28.1595 30.9981ZM28.1595 38.231C27.1744 38.231 26.3729 37.4199 26.3729 36.4227C26.3729 35.2012 27.3916 33.5812 28.1595 33.5812C28.9276 33.5812 29.9461 35.201 29.9461 36.4227C29.9461 37.4199 29.1448 38.231 28.1595 38.231Z"/>
<path d="M36.3267 37.1976C33.7185 37.1976 31.9879 40.4627 31.9879 42.6223C31.9879 45.0439 33.9341 47.0137 36.3267 47.0137C38.7192 47.0137 40.6655 45.0439 40.6655 42.6223C40.6655 40.4629 38.9349 37.1976 36.3267 37.1976ZM36.3267 44.4306C35.3416 44.4306 34.54 43.6195 34.54 42.6223C34.54 41.4006 35.5586 39.7809 36.3267 39.7809C37.0947 39.7809 38.1133 41.4006 38.1133 42.6223C38.1133 43.6195 37.3119 44.4306 36.3267 44.4306Z"/>
<path d="M9.78349 37.1976C7.17511 37.1976 5.44468 40.4627 5.44468 42.6223C5.44468 45.0439 7.39095 47.0137 9.78349 47.0137C12.176 47.0137 14.1223 45.0439 14.1223 42.6223C14.1223 40.4629 12.3919 37.1976 9.78349 37.1976ZM9.78349 44.4306C8.79839 44.4306 7.99685 43.6195 7.99685 42.6223C7.99685 41.4006 9.01541 39.7809 9.78349 39.7809C10.5516 39.7809 11.5701 41.4006 11.5701 42.6223C11.5701 43.6195 10.7686 44.4306 9.78349 44.4306Z"/>
<path d="M12.1657 79.9061H6.72085C6.01611 79.9061 5.44468 80.4843 5.44468 81.1978C5.44468 81.9112 6.01611 82.4894 6.72085 82.4894H12.1657C12.8704 82.4894 13.4419 81.9112 13.4419 81.1978C13.4417 80.4841 12.8704 79.9061 12.1657 79.9061Z"/>
<path d="M29.8611 79.9061H17.6103C16.9056 79.9061 16.3342 80.4843 16.3342 81.1978C16.3342 81.9112 16.9056 82.4894 17.6103 82.4894H29.8611C30.566 82.4894 31.1373 81.9112 31.1373 81.1978C31.1373 80.4841 30.566 79.9061 29.8611 79.9061Z"/>
<path d="M16.2492 68.8847H6.72076C6.01602 68.8847 5.44459 69.4629 5.44459 70.1763C5.44459 70.8898 6.01602 71.4679 6.72076 71.4679H16.2492C16.9539 71.4679 17.5253 70.8898 17.5253 70.1763C17.5253 69.4627 16.9541 68.8847 16.2492 68.8847Z"/>
<path d="M28.4999 68.8847H21.694C20.9892 68.8847 20.4178 69.4629 20.4178 70.1763C20.4178 70.8898 20.9892 71.4679 21.694 71.4679H28.4999C29.2048 71.4679 29.7761 70.8898 29.7761 70.1763C29.7761 69.4627 29.205 68.8847 28.4999 68.8847Z"/>
</mask>
<path d="M56.89 26.9438L51.5552 14.7947V1.29168C51.5552 0.349464 50.5425 -0.285613 49.7084 0.136511L44.8343 2.60326L39.9603 0.136511C39.6011 -0.0455038 39.1779 -0.0455038 38.8187 0.136511L33.9447 2.60326L29.0708 0.136511C28.7116 -0.0455038 28.2884 -0.0455038 27.9292 0.136511L23.0552 2.60326L18.1811 0.136511C17.8219 -0.0455038 17.3989 -0.0455038 17.0397 0.136511L12.1657 2.60326L7.29159 0.136511C6.45745 -0.285613 5.44483 0.349636 5.44483 1.29168V14.7945L0.109872 26.9436C0.03753 27.1078 0 27.2887 0 27.4682V86.7084C0 87.4218 0.571434 88 1.27617 88H55.7238C56.4287 88 57 87.4218 57 86.7084V27.4682C56.9998 27.2875 56.9626 27.109 56.89 26.9438ZM7.99701 3.3815L11.5949 5.20234C11.9541 5.38436 12.3771 5.38436 12.7363 5.20234L17.6103 2.73577L22.4844 5.20234C22.8436 5.38436 23.2666 5.38436 23.6258 5.20234L28.4998 2.73577L33.3739 5.20234C33.7331 5.38436 34.1563 5.38436 34.5154 5.20234L39.3893 2.73577L44.2634 5.20234C44.6226 5.38436 45.0458 5.38436 45.4049 5.20234L49.0026 3.3815V13.777H7.99701V3.3815ZM2.55218 65.9569H30.7747L35.9855 70.1761L30.7747 74.3953H2.55218V65.9569ZM35.3059 28.7595H43.5582V85.4169H2.55218V76.9785H31.2223C31.512 76.9785 31.7933 76.8787 32.0196 76.6955L38.8255 71.1846C39.454 70.6756 39.454 69.6766 38.8255 69.1675L32.0196 63.6567C31.7933 63.4737 31.5122 63.3736 31.2223 63.3736H2.55218V28.7595H29.3506C30.0555 28.7595 30.6268 28.1813 30.6268 27.4678C30.6268 26.7544 30.0555 26.1762 29.3506 26.1762H3.23993L7.55039 16.3601H48.3156L44.0053 26.1762H35.3059C34.601 26.1762 34.0297 26.7544 34.0297 27.4678C34.0297 28.1813 34.601 28.7595 35.3059 28.7595ZM54.4477 85.4167H46.1103V27.7423L50.279 18.2488L54.4477 27.7423V85.4167Z" fill="#A07B50"/>
<path d="M23.0552 41.3308C17.2853 41.3308 12.5911 46.0819 12.5911 51.9217C12.5911 57.2594 16.503 60.4461 23.0552 60.4461C29.6076 60.4461 33.5193 57.2594 33.5193 51.9217C33.5193 46.0819 28.8251 41.3308 23.0552 41.3308ZM23.0552 57.863C20.1004 57.863 15.1433 57.0911 15.1433 51.9217C15.1433 47.506 18.6926 43.9139 23.0552 43.9139C27.418 43.9139 30.9671 47.506 30.9671 51.9217C30.9671 57.0913 26.01 57.863 23.0552 57.863Z" fill="#A07B50"/>
<path d="M17.9506 30.9981C15.3423 30.9981 13.6118 34.2632 13.6118 36.4228C13.6118 38.8444 15.5583 40.8142 17.9506 40.8142C20.3432 40.8142 22.2895 38.8444 22.2895 36.4228C22.2895 34.2632 20.559 30.9981 17.9506 30.9981ZM17.9506 38.231C16.9655 38.231 16.164 37.4199 16.164 36.4227C16.164 35.2012 17.1826 33.5812 17.9506 33.5812C18.7187 33.5812 19.7373 35.201 19.7373 36.4227C19.7373 37.4199 18.9357 38.231 17.9506 38.231Z" fill="#A07B50"/>
<path d="M28.1595 30.9981C25.5513 30.9981 23.8207 34.2632 23.8207 36.4228C23.8207 38.8444 25.7671 40.8142 28.1595 40.8142C30.5521 40.8142 32.4983 38.8444 32.4983 36.4228C32.4983 34.2632 30.7677 30.9981 28.1595 30.9981ZM28.1595 38.231C27.1744 38.231 26.3729 37.4199 26.3729 36.4227C26.3729 35.2012 27.3916 33.5812 28.1595 33.5812C28.9276 33.5812 29.9461 35.201 29.9461 36.4227C29.9461 37.4199 29.1448 38.231 28.1595 38.231Z" fill="#A07B50"/>
<path d="M36.3267 37.1976C33.7185 37.1976 31.9879 40.4627 31.9879 42.6223C31.9879 45.0439 33.9341 47.0137 36.3267 47.0137C38.7192 47.0137 40.6655 45.0439 40.6655 42.6223C40.6655 40.4629 38.9349 37.1976 36.3267 37.1976ZM36.3267 44.4306C35.3416 44.4306 34.54 43.6195 34.54 42.6223C34.54 41.4006 35.5586 39.7809 36.3267 39.7809C37.0947 39.7809 38.1133 41.4006 38.1133 42.6223C38.1133 43.6195 37.3119 44.4306 36.3267 44.4306Z" fill="#A07B50"/>
<path d="M9.78349 37.1976C7.17511 37.1976 5.44468 40.4627 5.44468 42.6223C5.44468 45.0439 7.39095 47.0137 9.78349 47.0137C12.176 47.0137 14.1223 45.0439 14.1223 42.6223C14.1223 40.4629 12.3919 37.1976 9.78349 37.1976ZM9.78349 44.4306C8.79839 44.4306 7.99685 43.6195 7.99685 42.6223C7.99685 41.4006 9.01541 39.7809 9.78349 39.7809C10.5516 39.7809 11.5701 41.4006 11.5701 42.6223C11.5701 43.6195 10.7686 44.4306 9.78349 44.4306Z" fill="#A07B50"/>
<path d="M12.1657 79.9061H6.72085C6.01611 79.9061 5.44468 80.4843 5.44468 81.1978C5.44468 81.9112 6.01611 82.4894 6.72085 82.4894H12.1657C12.8704 82.4894 13.4419 81.9112 13.4419 81.1978C13.4417 80.4841 12.8704 79.9061 12.1657 79.9061Z" fill="#A07B50"/>
<path d="M29.8611 79.9061H17.6103C16.9056 79.9061 16.3342 80.4843 16.3342 81.1978C16.3342 81.9112 16.9056 82.4894 17.6103 82.4894H29.8611C30.566 82.4894 31.1373 81.9112 31.1373 81.1978C31.1373 80.4841 30.566 79.9061 29.8611 79.9061Z" fill="#A07B50"/>
<path d="M16.2492 68.8847H6.72076C6.01602 68.8847 5.44459 69.4629 5.44459 70.1763C5.44459 70.8898 6.01602 71.4679 6.72076 71.4679H16.2492C16.9539 71.4679 17.5253 70.8898 17.5253 70.1763C17.5253 69.4627 16.9541 68.8847 16.2492 68.8847Z" fill="#A07B50"/>
<path d="M28.4999 68.8847H21.694C20.9892 68.8847 20.4178 69.4629 20.4178 70.1763C20.4178 70.8898 20.9892 71.4679 21.694 71.4679H28.4999C29.2048 71.4679 29.7761 70.8898 29.7761 70.1763C29.7761 69.4627 29.205 68.8847 28.4999 68.8847Z" fill="#A07B50"/>
<path d="M56.89 26.9438L51.5552 14.7947V1.29168C51.5552 0.349464 50.5425 -0.285613 49.7084 0.136511L44.8343 2.60326L39.9603 0.136511C39.6011 -0.0455038 39.1779 -0.0455038 38.8187 0.136511L33.9447 2.60326L29.0708 0.136511C28.7116 -0.0455038 28.2884 -0.0455038 27.9292 0.136511L23.0552 2.60326L18.1811 0.136511C17.8219 -0.0455038 17.3989 -0.0455038 17.0397 0.136511L12.1657 2.60326L7.29159 0.136511C6.45745 -0.285613 5.44483 0.349636 5.44483 1.29168V14.7945L0.109872 26.9436C0.03753 27.1078 0 27.2887 0 27.4682V86.7084C0 87.4218 0.571434 88 1.27617 88H55.7238C56.4287 88 57 87.4218 57 86.7084V27.4682C56.9998 27.2875 56.9626 27.109 56.89 26.9438ZM7.99701 3.3815L11.5949 5.20234C11.9541 5.38436 12.3771 5.38436 12.7363 5.20234L17.6103 2.73577L22.4844 5.20234C22.8436 5.38436 23.2666 5.38436 23.6258 5.20234L28.4998 2.73577L33.3739 5.20234C33.7331 5.38436 34.1563 5.38436 34.5154 5.20234L39.3893 2.73577L44.2634 5.20234C44.6226 5.38436 45.0458 5.38436 45.4049 5.20234L49.0026 3.3815V13.777H7.99701V3.3815ZM2.55218 65.9569H30.7747L35.9855 70.1761L30.7747 74.3953H2.55218V65.9569ZM35.3059 28.7595H43.5582V85.4169H2.55218V76.9785H31.2223C31.512 76.9785 31.7933 76.8787 32.0196 76.6955L38.8255 71.1846C39.454 70.6756 39.454 69.6766 38.8255 69.1675L32.0196 63.6567C31.7933 63.4737 31.5122 63.3736 31.2223 63.3736H2.55218V28.7595H29.3506C30.0555 28.7595 30.6268 28.1813 30.6268 27.4678C30.6268 26.7544 30.0555 26.1762 29.3506 26.1762H3.23993L7.55039 16.3601H48.3156L44.0053 26.1762H35.3059C34.601 26.1762 34.0297 26.7544 34.0297 27.4678C34.0297 28.1813 34.601 28.7595 35.3059 28.7595ZM54.4477 85.4167H46.1103V27.7423L50.279 18.2488L54.4477 27.7423V85.4167Z" stroke="#1F1C1D" mask="url(#path-1-inside-1_14_47)"/>
<path d="M23.0552 41.3308C17.2853 41.3308 12.5911 46.0819 12.5911 51.9217C12.5911 57.2594 16.503 60.4461 23.0552 60.4461C29.6076 60.4461 33.5193 57.2594 33.5193 51.9217C33.5193 46.0819 28.8251 41.3308 23.0552 41.3308ZM23.0552 57.863C20.1004 57.863 15.1433 57.0911 15.1433 51.9217C15.1433 47.506 18.6926 43.9139 23.0552 43.9139C27.418 43.9139 30.9671 47.506 30.9671 51.9217C30.9671 57.0913 26.01 57.863 23.0552 57.863Z" stroke="#1F1C1D" mask="url(#path-1-inside-1_14_47)"/>
<path d="M17.9506 30.9981C15.3423 30.9981 13.6118 34.2632 13.6118 36.4228C13.6118 38.8444 15.5583 40.8142 17.9506 40.8142C20.3432 40.8142 22.2895 38.8444 22.2895 36.4228C22.2895 34.2632 20.559 30.9981 17.9506 30.9981ZM17.9506 38.231C16.9655 38.231 16.164 37.4199 16.164 36.4227C16.164 35.2012 17.1826 33.5812 17.9506 33.5812C18.7187 33.5812 19.7373 35.201 19.7373 36.4227C19.7373 37.4199 18.9357 38.231 17.9506 38.231Z" stroke="#1F1C1D" mask="url(#path-1-inside-1_14_47)"/>
<path d="M28.1595 30.9981C25.5513 30.9981 23.8207 34.2632 23.8207 36.4228C23.8207 38.8444 25.7671 40.8142 28.1595 40.8142C30.5521 40.8142 32.4983 38.8444 32.4983 36.4228C32.4983 34.2632 30.7677 30.9981 28.1595 30.9981ZM28.1595 38.231C27.1744 38.231 26.3729 37.4199 26.3729 36.4227C26.3729 35.2012 27.3916 33.5812 28.1595 33.5812C28.9276 33.5812 29.9461 35.201 29.9461 36.4227C29.9461 37.4199 29.1448 38.231 28.1595 38.231Z" stroke="#1F1C1D" mask="url(#path-1-inside-1_14_47)"/>
<path d="M36.3267 37.1976C33.7185 37.1976 31.9879 40.4627 31.9879 42.6223C31.9879 45.0439 33.9341 47.0137 36.3267 47.0137C38.7192 47.0137 40.6655 45.0439 40.6655 42.6223C40.6655 40.4629 38.9349 37.1976 36.3267 37.1976ZM36.3267 44.4306C35.3416 44.4306 34.54 43.6195 34.54 42.6223C34.54 41.4006 35.5586 39.7809 36.3267 39.7809C37.0947 39.7809 38.1133 41.4006 38.1133 42.6223C38.1133 43.6195 37.3119 44.4306 36.3267 44.4306Z" stroke="#1F1C1D" mask="url(#path-1-inside-1_14_47)"/>
<path d="M9.78349 37.1976C7.17511 37.1976 5.44468 40.4627 5.44468 42.6223C5.44468 45.0439 7.39095 47.0137 9.78349 47.0137C12.176 47.0137 14.1223 45.0439 14.1223 42.6223C14.1223 40.4629 12.3919 37.1976 9.78349 37.1976ZM9.78349 44.4306C8.79839 44.4306 7.99685 43.6195 7.99685 42.6223C7.99685 41.4006 9.01541 39.7809 9.78349 39.7809C10.5516 39.7809 11.5701 41.4006 11.5701 42.6223C11.5701 43.6195 10.7686 44.4306 9.78349 44.4306Z" stroke="#1F1C1D" mask="url(#path-1-inside-1_14_47)"/>
<path d="M12.1657 79.9061H6.72085C6.01611 79.9061 5.44468 80.4843 5.44468 81.1978C5.44468 81.9112 6.01611 82.4894 6.72085 82.4894H12.1657C12.8704 82.4894 13.4419 81.9112 13.4419 81.1978C13.4417 80.4841 12.8704 79.9061 12.1657 79.9061Z" stroke="#1F1C1D" mask="url(#path-1-inside-1_14_47)"/>
<path d="M29.8611 79.9061H17.6103C16.9056 79.9061 16.3342 80.4843 16.3342 81.1978C16.3342 81.9112 16.9056 82.4894 17.6103 82.4894H29.8611C30.566 82.4894 31.1373 81.9112 31.1373 81.1978C31.1373 80.4841 30.566 79.9061 29.8611 79.9061Z" stroke="#1F1C1D" mask="url(#path-1-inside-1_14_47)"/>
<path d="M16.2492 68.8847H6.72076C6.01602 68.8847 5.44459 69.4629 5.44459 70.1763C5.44459 70.8898 6.01602 71.4679 6.72076 71.4679H16.2492C16.9539 71.4679 17.5253 70.8898 17.5253 70.1763C17.5253 69.4627 16.9541 68.8847 16.2492 68.8847Z" stroke="#1F1C1D" mask="url(#path-1-inside-1_14_47)"/>
<path d="M28.4999 68.8847H21.694C20.9892 68.8847 20.4178 69.4629 20.4178 70.1763C20.4178 70.8898 20.9892 71.4679 21.694 71.4679H28.4999C29.2048 71.4679 29.7761 70.8898 29.7761 70.1763C29.7761 69.4627 29.205 68.8847 28.4999 68.8847Z" stroke="#1F1C1D" mask="url(#path-1-inside-1_14_47)"/>
</svg>
