<svg width="18" height="10" viewBox="0 0 18 10" fill="none" xmlns="http://www.w3.org/2000/svg">
<path d="M17.8396 8.91937C17.7912 8.8405 17.4919 8.20732 16.0518 6.90591C14.5442 5.54315 14.7467 5.76443 16.5626 3.40809C17.6685 1.97303 18.1107 1.09665 17.9723 0.722004C17.8407 0.364883 17.0272 0.459093 17.0272 0.459093L14.3226 0.474429C14.3226 0.474429 14.1223 0.448138 13.9727 0.53468C13.8275 0.620126 13.7341 0.81731 13.7341 0.81731C13.7341 0.81731 13.3055 1.92811 12.7339 2.8724C11.529 4.86505 11.0463 4.97022 10.8494 4.84643C10.3915 4.55832 10.5063 3.68743 10.5063 3.06959C10.5063 1.13828 10.8067 0.333114 9.9201 0.124976C9.62533 0.0559615 9.40932 0.00995199 8.65664 0.00228373C7.69131 -0.00757546 6.87338 0.00557011 6.41097 0.225759C6.1027 0.372551 5.86531 0.700095 6.01044 0.718718C6.18933 0.741723 6.59436 0.824978 6.80925 1.1098C7.08715 1.47678 7.07702 2.30276 7.07702 2.30276C7.07702 2.30276 7.23678 4.57585 6.70462 4.85848C6.33897 5.05238 5.8383 4.65692 4.76385 2.8483C4.21368 1.92263 3.7974 0.898375 3.7974 0.898375C3.7974 0.898375 3.71752 0.707763 3.57464 0.605885C3.40138 0.482098 3.15836 0.442661 3.15836 0.442661L0.586419 0.457997C0.586419 0.457997 0.200516 0.468952 0.0587555 0.632177C-0.0672538 0.777873 0.0486297 1.07803 0.0486297 1.07803C0.0486297 1.07803 2.06253 5.66474 4.34194 7.97727C6.43347 10.097 8.8074 9.95787 8.8074 9.95787H9.88298C9.88298 9.95787 10.2081 9.92282 10.3735 9.74864C10.5265 9.5887 10.5209 9.28854 10.5209 9.28854C10.5209 9.28854 10.4995 7.88306 11.1701 7.67602C11.8305 7.47226 12.6788 9.03439 13.5777 9.6358C14.2573 10.0904 14.7737 9.99074 14.7737 9.99074L17.178 9.95787C17.178 9.95787 18.4359 9.88228 17.8396 8.91937Z" fill="white"/>
</svg>
